<svg viewBox="0 0 27 28" fill="none" xmlns="http://www.w3.org/2000/svg">
  <path d="M15.385 21.079c-.564 1.95-.846 2.925-1.28 3.173a1.217 1.217 0 01-1.208 0c-.434-.248-.717-1.223-1.281-3.173l-.868-3c-.11-.38-.166-.571-.268-.728a1.236 1.236 0 00-.346-.349c-.155-.104-.343-.16-.72-.27l-2.969-.878c-1.93-.57-2.895-.855-3.14-1.294a1.251 1.251 0 010-1.22c.245-.439 1.21-.724 3.14-1.294l2.969-.877c.377-.112.565-.168.72-.271.137-.092.255-.21.346-.35.102-.156.157-.346.268-.727l.868-3c.564-1.95.847-2.925 1.28-3.173a1.216 1.216 0 011.208 0c.435.248.717 1.223 1.281 3.173l.868 3c.11.38.166.571.268.728.091.138.209.257.346.349.155.104.343.16.72.27l2.969.878c1.93.57 2.895.855 3.14 1.294a1.25 1.25 0 010 1.22c-.245.439-1.21.724-3.14 1.294l-2.969.878c-.377.11-.565.166-.72.27-.137.092-.255.21-.346.35-.102.156-.157.346-.268.727l-.868 3z" fill="#FEDD2E"/>
  <path d="M4.295 20.15c-1.694 0-3.068 1.388-3.068 3.1 0 1.712 1.374 3.1 3.068 3.1 1.695 0 3.068-1.388 3.068-3.1 0-1.712-1.373-3.1-3.068-3.1z" fill="#28C840"/>
  <path d="M22.705 1.55c-1.694 0-3.068 1.388-3.068 3.1 0 1.712 1.374 3.1 3.068 3.1 1.695 0 3.068-1.388 3.068-3.1 0-1.712-1.373-3.1-3.068-3.1z" fill="#FF5F57"/>
</svg>
